<?xml version="1.0" encoding="UTF-8"?>
<svg id="Capa_1" data-name="Capa 1" xmlns="http://www.w3.org/2000/svg" width="220" height="60" viewBox="0 0 220 60">
  <defs>
    <style>
      .cls-1 {
        fill: #2c8300;
      }

      .cls-2 {
        fill: #fff;
      }

      .cls-3 {
        fill: #3aa401;
      }
    </style>
  </defs>
  <rect class="cls-1" x="-.12" y="-.17" width="220.24" height="60.34" rx="10.99" ry="10.99"/>
  <circle class="cls-3" cx="31.81" cy="30" r="21.46"/>
  <g>
    <path class="cls-2" d="M71.05,35.1h-2.43l-.94-2.74h-4.3l-.94,2.74h-2.4l4.1-11.22h2.81l4.1,11.22ZM63.91,30.63h3.25l-1.63-4.9-1.62,4.9Z"/>
    <path class="cls-2" d="M75.32,35.27c-.86,0-1.65-.15-2.35-.46-.71-.31-1.28-.74-1.73-1.29l1.34-1.36c.27.41.63.74,1.09,1,.45.26.99.39,1.61.39.44,0,.8-.07,1.06-.2.27-.13.4-.34.4-.62,0-.18-.06-.34-.19-.47-.12-.13-.37-.24-.75-.31l-1.5-.31c-.99-.2-1.69-.51-2.1-.93-.41-.41-.62-.95-.62-1.61,0-.46.14-.9.42-1.31s.69-.74,1.25-.99,1.25-.38,2.07-.38c1.72,0,2.96.53,3.71,1.58l-1.39,1.36c-.25-.4-.58-.7-.98-.91-.4-.21-.82-.31-1.27-.31-1,0-1.5.28-1.5.83,0,.18.08.34.24.47.16.13.45.24.87.33l1.73.36c.84.17,1.44.46,1.8.86s.54.89.54,1.45c0,.82-.33,1.49-.98,2.02-.65.53-1.58.8-2.8.8Z"/>
    <path class="cls-2" d="M81.61,25.38c-.96,0-1.44-.41-1.44-1.24s.48-1.26,1.44-1.26,1.44.42,1.44,1.26-.48,1.24-1.44,1.24ZM82.76,26.6v8.5h-2.33v-8.5h2.33Z"/>
    <path class="cls-2" d="M88.12,35.27c-.86,0-1.65-.15-2.35-.46-.71-.31-1.28-.74-1.73-1.29l1.34-1.36c.27.41.63.74,1.09,1,.45.26.99.39,1.61.39.44,0,.8-.07,1.06-.2.27-.13.4-.34.4-.62,0-.18-.06-.34-.19-.47-.12-.13-.37-.24-.75-.31l-1.5-.31c-.99-.2-1.69-.51-2.1-.93-.41-.41-.62-.95-.62-1.61,0-.46.14-.9.42-1.31s.69-.74,1.25-.99,1.25-.38,2.07-.38c1.72,0,2.96.53,3.71,1.58l-1.39,1.36c-.25-.4-.58-.7-.98-.91-.4-.21-.82-.31-1.27-.31-1,0-1.5.28-1.5.83,0,.18.08.34.24.47.16.13.45.24.87.33l1.73.36c.84.17,1.44.46,1.8.86s.54.89.54,1.45c0,.82-.33,1.49-.98,2.02-.65.53-1.58.8-2.8.8Z"/>
    <path class="cls-2" d="M98.96,26.6v1.73h-2.72v3.99c0,.41.1.71.31.89.21.19.5.28.86.28.29,0,.55-.04.76-.13.21-.08.4-.2.57-.35l.37,1.55c-.28.22-.63.39-1.03.51-.4.12-.83.19-1.28.19-.85,0-1.54-.2-2.08-.59-.54-.39-.81-1.05-.81-1.98v-4.37h-1.56v-1.73h1.56v-1.96l2.33-.65v2.6h2.72Z"/>
    <path class="cls-2" d="M103.98,35.27c-1.34,0-2.41-.39-3.21-1.16s-1.21-1.86-1.21-3.26c0-.93.18-1.72.54-2.38s.87-1.16,1.52-1.51c.65-.35,1.4-.53,2.24-.53s1.59.17,2.19.52c.6.35,1.06.82,1.38,1.41.32.59.48,1.27.48,2.03,0,.23,0,.44-.02.65-.01.2-.03.39-.05.54h-6c.09.66.32,1.15.69,1.47.37.32.85.48,1.44.48.5,0,.9-.1,1.21-.29.3-.19.54-.46.71-.8l1.85.71c-.27.67-.75,1.19-1.43,1.56-.68.37-1.46.55-2.33.55ZM103.84,28.15c-1.1,0-1.76.61-1.99,1.82h3.83c-.07-.59-.26-1.04-.57-1.35-.31-.31-.73-.47-1.27-.47Z"/>
    <path class="cls-2" d="M109.37,35.1v-8.5h2.09l.08,1.6c.26-.59.64-1.03,1.15-1.33.5-.29,1.08-.44,1.74-.44.88,0,1.62.26,2.19.77.58.52.87,1.29.87,2.32v5.58h-2.33v-4.91c0-.72-.14-1.23-.43-1.5-.29-.28-.66-.42-1.1-.42-.32,0-.63.08-.93.23-.3.15-.54.4-.73.74-.19.34-.28.79-.28,1.36v4.5h-2.33Z"/>
    <path class="cls-2" d="M123.24,26.43c1.13,0,2.01.24,2.64.73s1.05,1.08,1.25,1.77l-2.18.78c-.23-1.03-.79-1.55-1.68-1.55-.65,0-1.15.23-1.5.68-.36.45-.54,1.13-.54,2.02s.18,1.58.55,2.01c.37.44.87.65,1.5.65.99,0,1.58-.5,1.77-1.51l2.11.68c-.19.76-.62,1.38-1.28,1.85s-1.52.71-2.58.71c-.88,0-1.66-.18-2.32-.53-.66-.35-1.18-.86-1.54-1.51-.36-.66-.54-1.45-.54-2.38s.18-1.72.55-2.38c.37-.66.88-1.16,1.53-1.51.65-.35,1.4-.53,2.25-.53Z"/>
    <path class="cls-2" d="M129.63,25.38c-.96,0-1.45-.41-1.45-1.24s.48-1.26,1.45-1.26,1.44.42,1.44,1.26-.48,1.24-1.44,1.24ZM130.79,26.6v8.5h-2.33v-8.5h2.33Z"/>
    <path class="cls-2" d="M137.59,29.68c0-.49-.14-.87-.42-1.14-.28-.27-.64-.41-1.1-.41-.42,0-.79.11-1.1.32-.32.21-.55.57-.7,1.07l-1.99-.61c.19-.75.62-1.35,1.27-1.8.65-.45,1.53-.68,2.63-.68s2.01.26,2.69.79c.69.53,1.03,1.31,1.03,2.35v3.45c0,.43.2.65.61.65.19,0,.37-.03.54-.08l-.14,1.44c-.29.15-.66.22-1.11.22-.49,0-.91-.1-1.27-.31-.36-.2-.6-.51-.72-.92-.27.41-.66.72-1.16.93-.5.21-1.02.31-1.56.31-.86,0-1.54-.2-2.05-.59-.5-.39-.76-.96-.76-1.71,0-.63.2-1.15.61-1.56.41-.4.99-.68,1.75-.82l2.92-.59v-.32ZM134.63,32.76c0,.28.1.5.31.65.21.15.46.22.76.22.33,0,.63-.05.92-.15.28-.1.52-.27.7-.52s.27-.57.27-.98v-.53l-1.79.36c-.39.08-.68.18-.88.31s-.3.34-.3.64Z"/>
    <path class="cls-2" d="M151.29,35.27c-1.03,0-1.94-.23-2.71-.68s-1.38-1.11-1.81-1.97c-.43-.86-.65-1.9-.65-3.11s.23-2.24.68-3.1,1.09-1.53,1.92-2,1.8-.7,2.91-.7c1.22,0,2.21.22,2.95.67.74.45,1.33,1.14,1.78,2.08l-2.18.93c-.18-.6-.49-1.04-.93-1.33s-.97-.43-1.61-.43c-.95,0-1.71.33-2.26,1-.56.67-.83,1.62-.83,2.86s.27,2.25.8,2.91c.53.66,1.32.99,2.36.99.76,0,1.39-.18,1.9-.55.5-.37.76-.93.76-1.67v-.25h-2.94v-1.72h4.96v5.92h-1.65l-.1-1.43c-.32.51-.76.9-1.33,1.18-.57.28-1.24.42-2.02.42Z"/>
    <path class="cls-2" d="M162.17,35.27c-1.34,0-2.41-.39-3.21-1.16s-1.21-1.86-1.21-3.26c0-.93.18-1.72.54-2.38.36-.66.87-1.16,1.52-1.51s1.4-.53,2.24-.53,1.59.17,2.19.52,1.06.82,1.38,1.41.48,1.27.48,2.03c0,.23,0,.44-.02.65-.01.2-.03.39-.05.54h-6c.09.66.32,1.15.69,1.47.37.32.85.48,1.44.48.5,0,.9-.1,1.21-.29.31-.19.54-.46.71-.8l1.85.71c-.27.67-.75,1.19-1.43,1.56-.68.37-1.46.55-2.33.55ZM162.03,28.15c-1.1,0-1.76.61-1.99,1.82h3.83c-.07-.59-.26-1.04-.57-1.35-.31-.31-.73-.47-1.27-.47Z"/>
    <path class="cls-2" d="M167.56,35.1v-8.5h2.09l.08,1.6c.26-.59.64-1.03,1.15-1.33.5-.29,1.08-.44,1.74-.44.88,0,1.62.26,2.19.77.58.52.87,1.29.87,2.32v5.58h-2.33v-4.91c0-.72-.14-1.23-.43-1.5-.29-.28-.66-.42-1.1-.42-.32,0-.63.08-.93.23-.3.15-.54.4-.73.74-.19.34-.28.79-.28,1.36v4.5h-2.33Z"/>
    <path class="cls-2" d="M181.51,35.27c-1.34,0-2.41-.39-3.21-1.16s-1.21-1.86-1.21-3.26c0-.93.18-1.72.54-2.38.36-.66.87-1.16,1.52-1.51s1.4-.53,2.24-.53,1.59.17,2.19.52,1.06.82,1.38,1.41.48,1.27.48,2.03c0,.23,0,.44-.02.65-.01.2-.03.39-.05.54h-6c.09.66.32,1.15.69,1.47.37.32.85.48,1.44.48.5,0,.9-.1,1.21-.29.31-.19.54-.46.71-.8l1.85.71c-.27.67-.75,1.19-1.43,1.56-.68.37-1.46.55-2.33.55ZM181.38,28.15c-1.1,0-1.76.61-1.99,1.82h3.83c-.07-.59-.26-1.04-.57-1.35-.31-.31-.73-.47-1.27-.47Z"/>
    <path class="cls-2" d="M186.9,35.1v-8.5h2.02l.15,1.67c.21-.58.54-1.03.98-1.35.44-.32.99-.48,1.66-.48.4,0,.7.06.92.19l-.27,1.96c-.11-.03-.25-.07-.42-.09-.17-.03-.38-.04-.64-.04-.35,0-.68.08-.99.25-.31.16-.57.41-.77.75-.2.33-.31.76-.31,1.27v4.4h-2.33Z"/>
    <path class="cls-2" d="M198.26,29.68c0-.49-.14-.87-.42-1.14-.28-.27-.64-.41-1.1-.41-.42,0-.79.11-1.1.32-.32.21-.55.57-.7,1.07l-1.99-.61c.19-.75.62-1.35,1.27-1.8.65-.45,1.53-.68,2.63-.68s2.01.26,2.69.79c.69.53,1.03,1.31,1.03,2.35v3.45c0,.43.2.65.61.65.19,0,.37-.03.54-.08l-.14,1.44c-.29.15-.66.22-1.11.22-.49,0-.91-.1-1.27-.31-.36-.2-.6-.51-.72-.92-.27.41-.66.72-1.16.93-.5.21-1.02.31-1.56.31-.86,0-1.54-.2-2.05-.59-.5-.39-.76-.96-.76-1.71,0-.63.2-1.15.61-1.56.41-.4.99-.68,1.75-.82l2.92-.59v-.32ZM195.3,32.76c0,.28.1.5.31.65.21.15.46.22.76.22.33,0,.63-.05.92-.15.28-.1.52-.27.7-.52s.27-.57.27-.98v-.53l-1.79.36c-.39.08-.68.18-.88.31s-.3.34-.3.64Z"/>
    <path class="cls-2" d="M204.96,22.88v9.6c0,.4.07.67.2.83.14.16.36.24.68.24.19,0,.35-.01.48-.03s.28-.07.48-.14l-.2,1.53c-.19.11-.43.2-.72.26s-.58.09-.86.09c-.83,0-1.43-.2-1.81-.6-.38-.4-.57-1.04-.57-1.93v-9.86h2.33Z"/>
  </g>
  <g id="PEvMxW.tif">
    <g>
      <path class="cls-2" d="M35.5,15.05c.44.1.74.26,1.08.55,2.09,1.77,3.95,4.2,6.02,6.03.28.31.42.65.52,1.05v19.08c-.23.88-.87,1.52-1.79,1.61h-17.96c-.97-.09-1.7-.83-1.8-1.8v-24.72c.09-.93.72-1.57,1.6-1.8h12.32ZM34.83,16.71h-11.41c-.14,0-.21.24-.2.36l.05,24.54.31.09,17.79-.05s.09-.12.09-.14v-18.16h-5c-.63,0-1.63-1-1.63-1.63v-5ZM40.25,21.69l-3.76-3.76v3.57c0,.06.14.19.19.19h3.56Z"/>
      <path class="cls-2" d="M32.64,38.53c-.48-.48-.18-1.28.45-1.42h5.57c.93.19.93,1.46,0,1.65h-5.52c-.14-.01-.4-.13-.51-.24Z"/>
      <path class="cls-2" d="M32.64,27.47c-.49-.49-.17-1.34.51-1.42h5.47c1,.18.97,1.55-.05,1.66-1.69.18-3.69-.14-5.42,0-.14-.02-.4-.14-.51-.24Z"/>
      <path class="cls-2" d="M32.64,33c-.49-.49-.17-1.34.51-1.42h5.47c1,.18.97,1.55-.05,1.66-1.69.18-3.69-.14-5.42,0-.14-.02-.4-.14-.51-.24Z"/>
      <path class="cls-2" d="M29.68,30.33c.79,0,1.07.83.57,1.45-.37.46-2.11,2.24-2.55,2.54-.27.18-.56.22-.86.1-.2-.08-1.17-1.03-1.31-1.23-.61-.87.31-1.8,1.18-1.18.11.08.43.48.52.46l2.13-2.07c.1-.01.22-.06.31-.06Z"/>
      <path class="cls-2" d="M29.68,35.86c.79,0,1.07.83.57,1.45-.37.46-2.11,2.24-2.55,2.54-.27.18-.56.22-.86.1-.2-.08-1.17-1.03-1.31-1.23-.61-.87.31-1.8,1.18-1.18.11.08.43.48.52.46l2.13-2.07c.1-.01.22-.06.31-.06Z"/>
      <path class="cls-2" d="M29.46,24.41c.77-.16,1.32.58.92,1.26l-2.74,2.74c-.29.19-.64.19-.93,0-.14-.09-1.19-1.15-1.27-1.28-.45-.77.42-1.63,1.15-1.15.16.1.46.56.63.52s1.58-1.65,1.92-1.9c.09-.07.21-.16.32-.18Z"/>
    </g>
  </g>
</svg>