<?xml version="1.0" encoding="UTF-8"?>
<svg id="Capa_1" data-name="Capa 1" xmlns="http://www.w3.org/2000/svg" width="220" height="60" viewBox="0 0 220 60">
  <defs>
    <style>
      .cls-1 {
        fill: #2c8300;
      }

      .cls-2 {
        fill: #fff;
      }

      .cls-3 {
        fill: #3aa401;
      }
    </style>
  </defs>
  <rect class="cls-1" x="-.12" y="-.17" width="220.24" height="60.34" rx="10.99" ry="10.99"/>
  <circle class="cls-3" cx="31.22" cy="30" r="21.46"/>
  <g>
    <path class="cls-2" d="M70.47,25.36c-.34,1.1-.94,1.92-1.79,2.46-.85.54-1.84.81-2.98.81s-2.07-.23-2.88-.7c-.81-.46-1.43-1.13-1.87-1.99-.44-.86-.65-1.89-.65-3.09s.22-2.23.66-3.09c.44-.86,1.06-1.52,1.87-1.99s1.75-.7,2.84-.7c1.14,0,2.13.24,2.95.72.82.48,1.39,1.21,1.69,2.18l-2.12.9c-.19-.68-.49-1.17-.88-1.45-.4-.29-.91-.43-1.53-.43-.93,0-1.67.33-2.22,1s-.82,1.62-.82,2.86.26,2.19.78,2.86c.52.67,1.27,1,2.26,1,.61,0,1.14-.16,1.59-.49.45-.33.76-.83.94-1.5l2.16.65Z"/>
    <path class="cls-2" d="M75.61,19.78c.85,0,1.6.18,2.26.53.66.35,1.17.86,1.54,1.51s.55,1.45.55,2.38-.18,1.72-.55,2.38-.88,1.16-1.54,1.51c-.66.35-1.41.53-2.26.53s-1.62-.18-2.27-.53c-.65-.35-1.16-.86-1.53-1.51-.37-.66-.55-1.45-.55-2.38s.18-1.72.55-2.38c.37-.66.88-1.16,1.53-1.51.65-.35,1.41-.53,2.27-.53ZM75.61,21.52c-.63,0-1.13.22-1.49.67-.36.45-.54,1.12-.54,2.01s.18,1.57.54,2.01c.36.45.85.67,1.49.67s1.11-.22,1.47-.67c.36-.45.54-1.12.54-2.01s-.18-1.57-.54-2.01c-.36-.45-.85-.67-1.47-.67Z"/>
    <path class="cls-2" d="M81.4,28.45v-8.5h2.09l.08,1.53c.28-.57.67-.99,1.16-1.27s1.04-.42,1.64-.42,1.16.14,1.66.42c.49.28.86.7,1.11,1.27.26-.57.66-.99,1.21-1.27.54-.28,1.11-.42,1.68-.42s1.06.11,1.52.34.82.57,1.1,1.02c.27.45.41,1.03.41,1.73v5.58h-2.33v-5.12c0-.62-.14-1.07-.42-1.33s-.63-.39-1.05-.39c-.52,0-.96.19-1.33.57-.36.38-.54.94-.54,1.69v4.57h-2.33v-5.12c0-.62-.14-1.07-.42-1.33s-.63-.39-1.06-.39c-.29,0-.59.08-.88.24-.29.16-.53.41-.71.75-.19.34-.28.79-.28,1.34v4.5h-2.33Z"/>
    <path class="cls-2" d="M96.96,32.02v-12.07h2.09l.1,1.67c.24-.54.6-.99,1.1-1.33s1.07-.51,1.74-.51,1.31.18,1.85.53c.54.35.97.85,1.28,1.5s.47,1.44.47,2.37-.16,1.73-.48,2.39-.75,1.17-1.3,1.52c-.55.35-1.18.53-1.88.53-.62,0-1.16-.15-1.61-.44-.45-.29-.8-.69-1.05-1.17v5.02h-2.33ZM101.26,26.84c.62,0,1.11-.22,1.47-.67.36-.45.54-1.1.54-1.96s-.17-1.52-.52-1.96c-.35-.45-.83-.67-1.45-.67s-1.08.23-1.45.7c-.37.46-.55,1.11-.55,1.94s.18,1.46.54,1.93c.36.47.83.71,1.44.71Z"/>
    <path class="cls-2" d="M109.4,16.23v9.61c0,.4.07.67.2.83.14.16.36.24.68.24.19,0,.35-.01.48-.03s.28-.07.48-.14l-.2,1.53c-.19.11-.43.2-.72.26s-.58.09-.86.09c-.83,0-1.43-.2-1.81-.6-.38-.4-.57-1.05-.57-1.93v-9.86h2.33Z"/>
    <path class="cls-2" d="M115.96,28.62c-1.34,0-2.41-.39-3.21-1.17-.8-.78-1.21-1.86-1.21-3.25,0-.93.18-1.72.54-2.38.36-.66.87-1.16,1.52-1.51.65-.35,1.4-.53,2.24-.53s1.59.17,2.19.52,1.06.82,1.38,1.41c.32.6.48,1.27.48,2.03,0,.23,0,.44-.02.65-.01.2-.03.39-.05.54h-6c.09.66.32,1.15.69,1.47.37.32.85.48,1.44.48.5,0,.9-.1,1.21-.29.31-.19.54-.46.71-.8l1.85.71c-.27.67-.75,1.19-1.43,1.56s-1.46.55-2.33.55ZM115.83,21.5c-1.1,0-1.76.61-1.99,1.82h3.83c-.07-.59-.26-1.04-.57-1.35-.31-.31-.73-.47-1.27-.47Z"/>
    <path class="cls-2" d="M126.93,19.95v1.73h-2.72v4c0,.41.1.71.31.89.21.19.5.28.86.28.29,0,.55-.04.76-.13.21-.08.4-.2.57-.35l.37,1.55c-.28.22-.63.39-1.03.51-.4.12-.83.19-1.28.19-.85,0-1.54-.2-2.08-.59-.54-.39-.81-1.05-.81-1.98v-4.37h-1.56v-1.73h1.56v-1.96l2.33-.65v2.6h2.72Z"/>
    <path class="cls-2" d="M132.93,23.03c0-.49-.14-.87-.42-1.14-.28-.27-.64-.41-1.1-.41-.42,0-.79.11-1.1.32-.32.22-.55.57-.7,1.07l-1.99-.61c.19-.75.62-1.35,1.27-1.8s1.53-.68,2.63-.68,2.01.26,2.69.79,1.03,1.31,1.03,2.35v3.45c0,.43.2.65.61.65.19,0,.37-.03.54-.08l-.14,1.45c-.29.15-.66.22-1.11.22-.49,0-.91-.1-1.27-.31-.36-.2-.6-.51-.72-.92-.27.41-.66.72-1.16.93-.5.21-1.02.31-1.56.31-.86,0-1.54-.2-2.05-.59-.5-.39-.76-.96-.76-1.71,0-.63.2-1.15.61-1.56.41-.4.99-.68,1.75-.82l2.92-.6v-.32ZM129.97,26.11c0,.28.1.5.31.65.21.15.46.22.76.22.33,0,.63-.05.92-.15.28-.1.52-.28.7-.52.18-.24.27-.57.27-.98v-.53l-1.79.36c-.39.08-.68.18-.88.31-.2.13-.3.34-.3.64Z"/>
    <path class="cls-2" d="M137.33,28.45v-8.5h2.02l.15,1.67c.21-.58.54-1.03.98-1.35.44-.32.99-.48,1.66-.48.4,0,.7.06.92.19l-.27,1.96c-.11-.03-.25-.07-.42-.09-.17-.03-.38-.04-.64-.04-.35,0-.68.08-.99.25-.31.17-.57.41-.77.75-.2.33-.31.76-.31,1.27v4.4h-2.33Z"/>
    <path class="cls-2" d="M70.61,42.31h-2.43l-.94-2.74h-4.3l-.94,2.74h-2.4l4.1-11.22h2.81l4.1,11.22ZM63.47,37.84h3.25l-1.63-4.9-1.61,4.9Z"/>
    <path class="cls-2" d="M74.87,42.48c-.86,0-1.65-.15-2.35-.46s-1.28-.74-1.73-1.29l1.34-1.36c.27.41.63.74,1.09,1,.45.26.99.39,1.62.39.44,0,.8-.07,1.06-.2.27-.13.4-.34.4-.62,0-.18-.06-.34-.19-.47-.12-.13-.37-.24-.75-.31l-1.5-.31c-.99-.2-1.69-.51-2.1-.93-.41-.41-.62-.95-.62-1.61,0-.46.14-.9.42-1.31s.69-.74,1.25-.99c.55-.26,1.25-.38,2.07-.38,1.72,0,2.96.53,3.71,1.58l-1.39,1.36c-.25-.4-.58-.7-.98-.91-.4-.21-.82-.31-1.27-.31-1,0-1.5.28-1.5.83,0,.18.08.34.24.47.16.13.45.24.87.33l1.73.36c.84.17,1.44.46,1.8.86.36.4.54.89.54,1.45,0,.82-.33,1.49-.98,2.02-.65.53-1.58.8-2.8.8Z"/>
    <path class="cls-2" d="M81.17,32.59c-.96,0-1.45-.41-1.45-1.24s.48-1.26,1.45-1.26,1.44.42,1.44,1.26-.48,1.24-1.44,1.24ZM82.32,33.81v8.5h-2.33v-8.5h2.33Z"/>
    <path class="cls-2" d="M87.68,42.48c-.86,0-1.65-.15-2.35-.46s-1.28-.74-1.73-1.29l1.34-1.36c.27.41.63.74,1.09,1,.45.26.99.39,1.62.39.44,0,.8-.07,1.06-.2.27-.13.4-.34.4-.62,0-.18-.06-.34-.19-.47-.12-.13-.37-.24-.75-.31l-1.5-.31c-.99-.2-1.69-.51-2.1-.93-.41-.41-.62-.95-.62-1.61,0-.46.14-.9.42-1.31s.69-.74,1.25-.99c.55-.26,1.25-.38,2.07-.38,1.72,0,2.96.53,3.71,1.58l-1.39,1.36c-.25-.4-.58-.7-.98-.91-.4-.21-.82-.31-1.27-.31-1,0-1.5.28-1.5.83,0,.18.08.34.24.47.16.13.45.24.87.33l1.73.36c.84.17,1.44.46,1.8.86.36.4.54.89.54,1.45,0,.82-.33,1.49-.98,2.02-.65.53-1.58.8-2.8.8Z"/>
    <path class="cls-2" d="M98.52,33.81v1.73h-2.72v3.99c0,.41.1.71.31.89.21.19.5.28.86.28.29,0,.55-.04.76-.13.21-.08.4-.2.57-.35l.37,1.55c-.28.22-.63.39-1.03.51-.4.12-.83.19-1.28.19-.85,0-1.54-.2-2.08-.59-.54-.39-.81-1.05-.81-1.98v-4.37h-1.56v-1.73h1.56v-1.96l2.33-.65v2.6h2.72Z"/>
    <path class="cls-2" d="M103.54,42.48c-1.34,0-2.41-.39-3.21-1.16s-1.21-1.86-1.21-3.26c0-.93.18-1.72.54-2.38.36-.66.87-1.16,1.52-1.51.65-.35,1.4-.53,2.24-.53s1.59.17,2.19.52,1.06.82,1.38,1.41c.32.59.48,1.27.48,2.03,0,.23,0,.44-.02.65-.01.2-.03.39-.05.54h-6c.09.66.32,1.15.69,1.47.37.32.85.48,1.44.48.5,0,.9-.1,1.21-.29.31-.19.54-.46.71-.8l1.85.71c-.27.67-.75,1.19-1.43,1.56-.68.37-1.46.55-2.33.55ZM103.4,35.36c-1.1,0-1.76.61-1.99,1.82h3.83c-.07-.59-.26-1.04-.57-1.35-.31-.31-.73-.47-1.27-.47Z"/>
    <path class="cls-2" d="M108.93,42.31v-8.5h2.09l.08,1.6c.26-.59.64-1.03,1.15-1.33.5-.29,1.08-.44,1.74-.44.88,0,1.62.26,2.19.77.58.52.87,1.29.87,2.32v5.58h-2.33v-4.91c0-.72-.14-1.23-.43-1.5-.29-.28-.66-.42-1.1-.42-.32,0-.63.08-.93.23-.3.15-.54.4-.73.74-.19.34-.28.79-.28,1.36v4.5h-2.33Z"/>
    <path class="cls-2" d="M122.8,33.64c1.13,0,2.01.24,2.64.73.63.49,1.05,1.08,1.25,1.77l-2.18.78c-.23-1.03-.79-1.55-1.68-1.55-.65,0-1.15.23-1.5.68-.36.45-.54,1.13-.54,2.02s.18,1.58.55,2.01c.37.44.87.65,1.5.65.99,0,1.58-.5,1.77-1.51l2.11.68c-.19.76-.62,1.38-1.28,1.85s-1.52.71-2.58.71c-.88,0-1.66-.18-2.32-.53-.66-.35-1.18-.86-1.54-1.51-.36-.66-.54-1.45-.54-2.38s.18-1.72.55-2.38c.37-.66.88-1.16,1.53-1.51.65-.35,1.4-.53,2.25-.53Z"/>
    <path class="cls-2" d="M129.19,32.59c-.96,0-1.45-.41-1.45-1.24s.48-1.26,1.45-1.26,1.44.42,1.44,1.26-.48,1.24-1.44,1.24ZM130.34,33.81v8.5h-2.33v-8.5h2.33Z"/>
    <path class="cls-2" d="M137.15,36.89c0-.49-.14-.87-.42-1.14-.28-.27-.64-.41-1.1-.41-.42,0-.79.11-1.1.32-.32.22-.55.57-.7,1.07l-1.99-.61c.19-.75.62-1.35,1.27-1.8.65-.45,1.53-.68,2.63-.68s2.01.26,2.69.79c.69.53,1.03,1.31,1.03,2.35v3.45c0,.43.2.65.61.65.19,0,.37-.03.54-.08l-.14,1.44c-.29.15-.66.22-1.11.22-.49,0-.91-.1-1.27-.31-.36-.2-.6-.51-.72-.92-.27.41-.66.72-1.16.93-.5.21-1.02.31-1.56.31-.86,0-1.54-.2-2.05-.59-.5-.39-.76-.96-.76-1.71,0-.63.2-1.15.61-1.56.41-.4.99-.68,1.75-.82l2.92-.59v-.32ZM134.19,39.97c0,.28.1.5.31.65.21.15.46.22.76.22.33,0,.63-.05.92-.15.28-.1.52-.27.7-.52s.27-.57.27-.98v-.53l-1.79.36c-.39.08-.68.18-.88.31s-.3.34-.3.64Z"/>
    <path class="cls-2" d="M155.49,42.31h-2.43l-.94-2.74h-4.3l-.94,2.74h-2.4l4.1-11.22h2.81l4.1,11.22ZM148.35,37.84h3.25l-1.63-4.9-1.61,4.9Z"/>
    <path class="cls-2" d="M156.41,42.31v-8.5h2.09l.08,1.6c.26-.59.64-1.03,1.15-1.33.5-.29,1.08-.44,1.74-.44.88,0,1.62.26,2.19.77.58.52.87,1.29.87,2.32v5.58h-2.33v-4.91c0-.72-.14-1.23-.43-1.5-.29-.28-.66-.42-1.1-.42-.32,0-.63.08-.93.23-.3.15-.54.4-.73.74-.19.34-.28.79-.28,1.36v4.5h-2.33Z"/>
    <path class="cls-2" d="M172.08,33.81v1.73h-2.72v3.99c0,.41.1.71.31.89.21.19.5.28.86.28.29,0,.55-.04.76-.13.21-.08.4-.2.57-.35l.37,1.55c-.28.22-.63.39-1.03.51-.4.12-.83.19-1.28.19-.85,0-1.54-.2-2.08-.59-.54-.39-.81-1.05-.81-1.98v-4.37h-1.56v-1.73h1.56v-1.96l2.33-.65v2.6h2.72Z"/>
    <path class="cls-2" d="M177.09,42.48c-1.34,0-2.41-.39-3.21-1.16s-1.21-1.86-1.21-3.26c0-.93.18-1.72.54-2.38.36-.66.87-1.16,1.52-1.51.65-.35,1.4-.53,2.24-.53s1.59.17,2.19.52,1.06.82,1.38,1.41c.32.59.48,1.27.48,2.03,0,.23,0,.44-.02.65-.01.2-.03.39-.05.54h-6c.09.66.32,1.15.69,1.47.37.32.85.48,1.44.48.5,0,.9-.1,1.21-.29.31-.19.54-.46.71-.8l1.85.71c-.27.67-.75,1.19-1.43,1.56-.68.37-1.46.55-2.33.55ZM176.96,35.36c-1.1,0-1.76.61-1.99,1.82h3.83c-.07-.59-.26-1.04-.57-1.35-.31-.31-.73-.47-1.27-.47Z"/>
    <path class="cls-2" d="M182.48,42.31v-8.5h2.02l.15,1.67c.21-.58.54-1.03.98-1.35.44-.32.99-.48,1.66-.48.4,0,.7.06.92.19l-.27,1.96c-.11-.03-.25-.06-.42-.09-.17-.03-.38-.04-.64-.04-.35,0-.68.08-.99.25-.31.17-.57.41-.77.75-.2.33-.31.76-.31,1.27v4.4h-2.33Z"/>
    <path class="cls-2" d="M190.32,32.59c-.96,0-1.45-.41-1.45-1.24s.48-1.26,1.45-1.26,1.44.42,1.44,1.26-.48,1.24-1.44,1.24ZM191.48,33.81v8.5h-2.33v-8.5h2.33Z"/>
    <path class="cls-2" d="M197.31,33.64c.85,0,1.6.18,2.26.53.66.35,1.17.86,1.54,1.51s.55,1.45.55,2.38-.18,1.72-.55,2.38-.88,1.16-1.54,1.51c-.66.35-1.41.53-2.26.53s-1.62-.18-2.27-.53c-.65-.35-1.16-.86-1.53-1.51-.37-.66-.55-1.45-.55-2.38s.18-1.72.55-2.38c.37-.66.88-1.16,1.53-1.51.65-.35,1.41-.53,2.27-.53ZM197.31,35.38c-.63,0-1.13.22-1.49.67-.36.45-.54,1.12-.54,2.01s.18,1.57.54,2.01c.36.45.85.67,1.49.67s1.11-.22,1.47-.67c.36-.45.54-1.12.54-2.01s-.18-1.57-.54-2.01c-.36-.45-.85-.67-1.47-.67Z"/>
    <path class="cls-2" d="M203.1,42.31v-8.5h2.02l.15,1.67c.21-.58.54-1.03.98-1.35.44-.32.99-.48,1.66-.48.4,0,.7.06.92.19l-.27,1.96c-.11-.03-.25-.06-.42-.09-.17-.03-.38-.04-.64-.04-.35,0-.68.08-.99.25-.31.17-.57.41-.77.75-.2.33-.31.76-.31,1.27v4.4h-2.33Z"/>
  </g>
  <g id="PEvMxW.tif">
    <g>
      <path class="cls-2" d="M35.02,14.85c.44.1.74.26,1.08.55,2.09,1.77,3.95,4.2,6.02,6.03.28.31.42.65.52,1.05v19.08c-.23.88-.87,1.52-1.79,1.61h-17.96c-.97-.09-1.7-.83-1.8-1.8v-24.72c.09-.93.72-1.57,1.6-1.8h12.32ZM34.36,16.51h-11.41c-.14,0-.21.24-.2.36l.05,24.54.31.09,17.79-.05s.09-.12.09-.14v-18.16h-5c-.63,0-1.63-1-1.63-1.63v-5ZM39.77,21.49l-3.76-3.76v3.57c0,.06.14.19.19.19h3.56Z"/>
      <polygon class="cls-2" points="38.97 28.04 29.86 28.04 29.86 25.84 38.89 25.84 38.97 25.92 38.97 28.04"/>
      <polygon class="cls-2" points="38.97 33.24 29.86 33.24 29.86 31.03 38.89 31.03 38.97 31.11 38.97 33.24"/>
      <polygon class="cls-2" points="38.97 38.54 29.86 38.54 29.86 36.33 38.89 36.33 38.97 36.41 38.97 38.54"/>
      <polygon class="cls-2" points="29.04 39.42 25.01 39.42 25.01 35.53 25.09 35.44 28.95 35.44 29.04 35.53 29.04 39.42"/>
      <path class="cls-2" d="M29.04,30.14v3.98h-4.03v-3.89l.08-.08h3.95ZM28.14,31.03l-1.45,1.43-.78-.77c-.14-.04-.44.27-.4.45.02.08,1.1,1.14,1.18,1.13l1.85-1.89c-.04-.13-.27-.39-.4-.35Z"/>
      <path class="cls-2" d="M25.01,24.95v3.98h4.03v-3.98h-4.03ZM26.73,28.04c-.09.03-.14,0-.21-.04-.08-.05-.99-.97-1.01-1.04-.05-.18.25-.49.4-.45l.78.77,1.45-1.43c.13-.03.36.23.4.35l-1.81,1.84Z"/>
    </g>
  </g>
</svg>