<?xml version="1.0" encoding="UTF-8"?>
<svg id="Capa_1" data-name="Capa 1" xmlns="http://www.w3.org/2000/svg" width="220" height="60" viewBox="0 0 220 60">
  <defs>
    <style>
      .cls-1 {
        fill: #2c8300;
      }

      .cls-2 {
        fill: #fff;
      }

      .cls-3 {
        fill: #3aa401;
      }
    </style>
  </defs>
  <rect class="cls-3" x="-.12" y="-.17" width="220.24" height="60.34" rx="10.99" ry="10.99"/>
  <circle class="cls-1" cx="31.81" cy="30" r="21.46"/>
  <g>
    <path class="cls-2" d="M63.65,23.88v4.61h4.95v-4.61h2.35v11.22h-2.35v-4.73h-4.95v4.73h-2.35v-11.22h2.35Z"/>
    <path class="cls-2" d="M74.3,25.38c-.96,0-1.44-.41-1.44-1.24s.48-1.26,1.44-1.26,1.44.42,1.44,1.26-.48,1.24-1.44,1.24ZM75.45,26.6v8.5h-2.33v-8.5h2.33Z"/>
    <path class="cls-2" d="M80.81,35.27c-.86,0-1.65-.15-2.35-.46-.71-.31-1.28-.74-1.73-1.29l1.34-1.36c.27.41.63.74,1.09,1,.45.26.99.39,1.61.39.44,0,.8-.07,1.06-.2.27-.13.4-.34.4-.62,0-.18-.06-.34-.19-.47-.12-.13-.37-.24-.75-.31l-1.5-.31c-.99-.2-1.69-.51-2.1-.93-.41-.41-.62-.95-.62-1.61,0-.46.14-.9.42-1.31s.69-.74,1.25-.99,1.25-.38,2.07-.38c1.72,0,2.96.53,3.71,1.58l-1.39,1.36c-.25-.4-.58-.7-.98-.91-.4-.21-.82-.31-1.27-.31-1,0-1.5.28-1.5.83,0,.18.08.34.24.47.16.13.45.24.87.33l1.73.36c.84.17,1.44.46,1.8.86s.54.89.54,1.45c0,.82-.33,1.49-.98,2.02-.65.53-1.58.8-2.8.8Z"/>
    <path class="cls-2" d="M91.65,26.6v1.73h-2.72v3.99c0,.41.1.71.31.89.21.19.5.28.86.28.29,0,.55-.04.76-.13.21-.08.4-.2.57-.35l.37,1.55c-.28.22-.63.39-1.03.51-.4.12-.83.19-1.28.19-.85,0-1.54-.2-2.08-.59-.54-.39-.81-1.05-.81-1.98v-4.37h-1.56v-1.73h1.56v-1.96l2.33-.65v2.6h2.72Z"/>
    <path class="cls-2" d="M96.6,26.43c.85,0,1.6.18,2.26.53s1.17.86,1.54,1.51.55,1.45.55,2.38-.18,1.72-.55,2.38-.88,1.16-1.54,1.51c-.66.35-1.41.53-2.26.53s-1.62-.18-2.27-.53c-.65-.35-1.16-.86-1.53-1.51s-.55-1.45-.55-2.38.18-1.72.55-2.38.88-1.16,1.53-1.51c.65-.35,1.41-.53,2.27-.53ZM96.6,28.17c-.63,0-1.13.22-1.49.67-.36.45-.54,1.12-.54,2.01s.18,1.57.54,2.01c.36.45.85.67,1.49.67s1.11-.22,1.47-.67c.36-.45.54-1.12.54-2.01s-.18-1.57-.54-2.01c-.36-.45-.85-.67-1.47-.67ZM96.65,22.49h2.24l-1.7,2.89h-1.72l1.17-2.89Z"/>
    <path class="cls-2" d="M102.4,35.1v-8.5h2.02l.15,1.67c.21-.58.54-1.03.98-1.35.44-.32.99-.48,1.66-.48.4,0,.7.06.92.19l-.27,1.96c-.11-.03-.25-.07-.42-.09-.17-.03-.38-.04-.64-.04-.35,0-.68.08-.99.25s-.57.41-.77.75c-.2.33-.31.76-.31,1.27v4.4h-2.33Z"/>
    <path class="cls-2" d="M110.23,25.38c-.96,0-1.45-.41-1.45-1.24s.48-1.26,1.45-1.26,1.44.42,1.44,1.26-.48,1.24-1.44,1.24ZM111.39,26.6v8.5h-2.33v-8.5h2.33Z"/>
    <path class="cls-2" d="M117.2,26.43c1.13,0,2.01.24,2.64.73s1.05,1.08,1.25,1.77l-2.18.78c-.23-1.03-.79-1.55-1.68-1.55-.65,0-1.15.23-1.5.68-.36.45-.54,1.13-.54,2.02s.18,1.58.55,2.01c.37.44.87.65,1.5.65.99,0,1.58-.5,1.77-1.51l2.11.68c-.19.76-.62,1.38-1.28,1.85s-1.52.71-2.58.71c-.88,0-1.66-.18-2.32-.53-.66-.35-1.18-.86-1.54-1.51-.36-.66-.54-1.45-.54-2.38s.18-1.72.55-2.38c.37-.66.88-1.16,1.53-1.51.65-.35,1.4-.53,2.25-.53Z"/>
    <path class="cls-2" d="M126.3,26.43c.85,0,1.6.18,2.26.53.66.35,1.17.86,1.54,1.51s.55,1.45.55,2.38-.18,1.72-.55,2.38-.88,1.16-1.54,1.51c-.66.35-1.41.53-2.26.53s-1.62-.18-2.27-.53c-.65-.35-1.16-.86-1.53-1.51-.37-.66-.55-1.45-.55-2.38s.18-1.72.55-2.38c.37-.66.88-1.16,1.53-1.51.65-.35,1.41-.53,2.27-.53ZM126.3,28.17c-.63,0-1.13.22-1.49.67-.36.45-.54,1.12-.54,2.01s.18,1.57.54,2.01c.36.45.85.67,1.49.67s1.11-.22,1.47-.67c.36-.45.54-1.12.54-2.01s-.18-1.57-.54-2.01c-.36-.45-.85-.67-1.47-.67Z"/>
  </g>
  <g id="i6edtW.tif">
    <g>
      <path class="cls-2" d="M33.87,15.21c-.39.53-.74,1.1-.97,1.72h-10.51c-.15,0-.21.16-.22.28,0,8.44.05,16.88.05,25.32l.33.09c4.44,0,8.88,0,13.31-.04l4.99-.02.06-.11v-17.4c.62-.24,1.2-.56,1.73-.95v18.59c0,.05-.13.37-.16.43-.3.67-.92,1.13-1.65,1.21h-18.58c-.95-.11-1.7-.88-1.79-1.84v-25.46c.08-.76.55-1.38,1.24-1.69.05-.02.36-.14.39-.14h11.8Z"/>
      <path class="cls-2" d="M38.13,13.75c4.76-.3,7.7,5.01,4.91,8.88-2.6,3.6-8.22,2.76-9.74-1.4-1.26-3.44,1.19-7.25,4.84-7.48ZM38.43,14.94c-3.32.15-5.35,3.62-3.69,6.57,1.83,3.25,6.78,2.78,7.96-.76.95-2.86-1.19-5.95-4.26-5.81Z"/>
      <path class="cls-2" d="M24.94,31.63h13.37c1.01.12,1.11,1.6.14,1.87-4.47.07-8.96.01-13.43.03-1.13-.09-1.16-1.74-.08-1.9Z"/>
      <path class="cls-2" d="M24.94,36.72h13.37c1.01.12,1.11,1.6.14,1.87-4.47.07-8.96.01-13.43.03-1.13-.09-1.16-1.74-.08-1.9Z"/>
      <path class="cls-2" d="M24.9,26.53h13.46c1.03.16,1.03,1.72,0,1.88h-13.44c-1.01-.17-1.02-1.69-.02-1.88Z"/>
      <path class="cls-2" d="M38.04,19.69v-2.37c0-.1-.21-.41-.31-.47-.3-.2-.8-.02-.87.33-.05.25,0,.73,0,1.02,0,.05-.02.09-.02.13-.02.51-.07,1.06-.04,1.57.02.36.02.77.41.92,1.25.04,2.52.01,3.78.02.36-.13.5-.61.27-.92-.03-.04-.25-.22-.29-.22h-2.92Z"/>
    </g>
  </g>
</svg>