<?xml version="1.0" encoding="UTF-8"?>
<svg id="Capa_1" data-name="Capa 1" xmlns="http://www.w3.org/2000/svg" width="220" height="60" viewBox="0 0 220 60">
  <defs>
    <style>
      .cls-1 {
        fill: #2c8300;
      }

      .cls-2 {
        fill: #fff;
      }

      .cls-3 {
        fill: #3aa401;
      }
    </style>
  </defs>
  <rect class="cls-3" x="-.12" y="-.17" width="220.24" height="60.34" rx="10.99" ry="10.99"/>
  <circle class="cls-1" cx="31.81" cy="30" r="21.46"/>
  <g>
    <path class="cls-2" d="M65.42,33.22h5.92v1.89h-8.26v-11.22h2.35v9.33Z"/>
    <path class="cls-2" d="M73.71,25.38c-.96,0-1.45-.41-1.45-1.24s.48-1.26,1.45-1.26,1.44.42,1.44,1.26-.48,1.24-1.44,1.24ZM74.87,26.6v8.5h-2.33v-8.5h2.33Z"/>
    <path class="cls-2" d="M80.22,35.27c-.86,0-1.65-.15-2.35-.46-.71-.31-1.28-.74-1.73-1.29l1.34-1.36c.27.41.63.74,1.09,1,.45.26.99.39,1.62.39.44,0,.8-.07,1.06-.2.27-.13.4-.34.4-.62,0-.18-.06-.34-.19-.47-.12-.13-.37-.24-.75-.31l-1.5-.31c-.99-.2-1.69-.51-2.1-.93-.41-.41-.62-.95-.62-1.61,0-.46.14-.9.42-1.31.28-.41.69-.74,1.25-.99.56-.25,1.25-.38,2.07-.38,1.72,0,2.96.53,3.71,1.58l-1.39,1.36c-.25-.4-.58-.7-.98-.91-.4-.21-.83-.31-1.27-.31-1,0-1.5.28-1.5.83,0,.18.08.34.24.47.16.13.45.24.87.33l1.73.36c.84.17,1.44.46,1.8.86.36.4.54.89.54,1.45,0,.82-.33,1.49-.98,2.02-.65.53-1.58.8-2.8.8Z"/>
    <path class="cls-2" d="M91.07,26.6v1.73h-2.72v3.99c0,.41.1.71.31.89.21.19.5.28.86.28.29,0,.55-.04.76-.13.21-.08.4-.2.57-.35l.37,1.55c-.28.22-.63.39-1.03.51-.4.12-.83.19-1.28.19-.85,0-1.54-.2-2.08-.59-.54-.39-.81-1.05-.81-1.98v-4.37h-1.56v-1.73h1.56v-1.96l2.33-.65v2.6h2.72Z"/>
    <path class="cls-2" d="M97.07,29.68c0-.49-.14-.87-.42-1.14-.28-.27-.64-.41-1.1-.41-.42,0-.79.11-1.11.32-.32.21-.55.57-.7,1.07l-1.99-.61c.19-.75.61-1.35,1.27-1.8.65-.45,1.53-.68,2.63-.68s2.01.26,2.69.79c.69.53,1.03,1.31,1.03,2.35v3.45c0,.43.2.65.61.65.19,0,.37-.03.54-.08l-.14,1.44c-.29.15-.66.22-1.11.22-.49,0-.91-.1-1.27-.31-.36-.2-.6-.51-.72-.92-.27.41-.66.72-1.17.93s-1.02.31-1.56.31c-.86,0-1.54-.2-2.05-.59-.5-.39-.76-.96-.76-1.71,0-.63.2-1.15.61-1.56.41-.4.99-.68,1.75-.82l2.92-.59v-.32ZM94.11,32.76c0,.28.1.5.31.65.21.15.46.22.76.22.33,0,.63-.05.92-.15.28-.1.52-.27.7-.52.18-.24.27-.57.27-.98v-.53l-1.79.36c-.39.08-.68.18-.88.31-.2.13-.3.34-.3.64Z"/>
    <path class="cls-2" d="M101.47,35.1v-8.5h2.02l.15,1.67c.22-.58.54-1.03.98-1.35.44-.32.99-.48,1.66-.48.4,0,.7.06.92.19l-.27,1.96c-.11-.03-.25-.07-.42-.09s-.38-.04-.64-.04c-.35,0-.68.08-1,.25s-.57.41-.77.75c-.2.33-.31.76-.31,1.27v4.4h-2.33Z"/>
    <path class="cls-2" d="M122.01,35.1h-2.43l-.94-2.74h-4.3l-.94,2.74h-2.4l4.1-11.22h2.81l4.1,11.22ZM114.87,30.63h3.25l-1.63-4.9-1.61,4.9Z"/>
    <path class="cls-2" d="M126.58,26.43c1.13,0,2.01.24,2.64.73s1.05,1.08,1.25,1.77l-2.18.78c-.23-1.03-.79-1.55-1.68-1.55-.65,0-1.15.23-1.5.68-.36.45-.54,1.13-.54,2.02s.18,1.58.55,2.01c.37.44.87.65,1.5.65.99,0,1.58-.5,1.77-1.51l2.11.68c-.19.76-.62,1.38-1.28,1.85s-1.52.71-2.58.71c-.88,0-1.66-.18-2.32-.53-.66-.35-1.18-.86-1.54-1.51-.36-.66-.54-1.45-.54-2.38s.18-1.72.55-2.38c.37-.66.88-1.16,1.53-1.51.65-.35,1.4-.53,2.25-.53Z"/>
    <path class="cls-2" d="M137.53,26.6v1.73h-2.72v3.99c0,.41.1.71.31.89.21.19.5.28.86.28.29,0,.55-.04.76-.13.21-.08.4-.2.57-.35l.37,1.55c-.28.22-.63.39-1.03.51-.4.12-.83.19-1.28.19-.85,0-1.54-.2-2.08-.59-.54-.39-.81-1.05-.81-1.98v-4.37h-1.56v-1.73h1.56v-1.96l2.33-.65v2.6h2.72Z"/>
    <path class="cls-2" d="M139.77,25.38c-.96,0-1.45-.41-1.45-1.24s.48-1.26,1.45-1.26,1.44.42,1.44,1.26-.48,1.24-1.44,1.24ZM140.93,26.6v8.5h-2.33v-8.5h2.33Z"/>
    <path class="cls-2" d="M148.46,26.6h2.41l-3.23,8.5h-2.69l-3.23-8.5h2.5l2.09,6.71,2.14-6.71Z"/>
    <path class="cls-2" d="M152.83,25.38c-.96,0-1.45-.41-1.45-1.24s.48-1.26,1.45-1.26,1.44.42,1.44,1.26-.48,1.24-1.44,1.24ZM153.98,26.6v8.5h-2.33v-8.5h2.33Z"/>
    <path class="cls-2" d="M159.15,35.27c-.7,0-1.33-.18-1.88-.53-.55-.35-.98-.85-1.29-1.5s-.47-1.44-.47-2.37.16-1.74.49-2.41c.33-.66.77-1.17,1.33-1.51.56-.35,1.19-.52,1.9-.52.61,0,1.14.15,1.58.44.44.29.78.69,1,1.17v-5.17h2.33v12.22h-2.09l-.1-1.65c-.24.57-.61,1.01-1.11,1.33s-1.07.48-1.7.48ZM159.83,33.49c.6,0,1.08-.23,1.44-.71.36-.47.54-1.14.54-2,0-.82-.18-1.45-.54-1.9-.36-.45-.83-.67-1.42-.67-.63,0-1.13.22-1.49.67-.36.45-.54,1.1-.54,1.96s.18,1.52.53,1.96c.35.45.84.67,1.46.67Z"/>
    <path class="cls-2" d="M170.93,29.68c0-.49-.14-.87-.42-1.14-.28-.27-.64-.41-1.1-.41-.42,0-.79.11-1.1.32-.32.21-.55.57-.7,1.07l-1.99-.61c.19-.75.62-1.35,1.27-1.8.65-.45,1.53-.68,2.63-.68s2.01.26,2.69.79c.69.53,1.03,1.31,1.03,2.35v3.45c0,.43.2.65.61.65.19,0,.37-.03.54-.08l-.14,1.44c-.29.15-.66.22-1.11.22-.49,0-.91-.1-1.27-.31-.36-.2-.6-.51-.72-.92-.27.41-.66.72-1.16.93-.5.21-1.02.31-1.56.31-.86,0-1.54-.2-2.05-.59-.5-.39-.76-.96-.76-1.71,0-.63.2-1.15.61-1.56.41-.4.99-.68,1.75-.82l2.92-.59v-.32ZM167.98,32.76c0,.28.1.5.31.65.21.15.46.22.76.22.33,0,.63-.05.92-.15.28-.1.52-.27.7-.52s.27-.57.27-.98v-.53l-1.79.36c-.39.08-.68.18-.88.31s-.3.34-.3.64Z"/>
    <path class="cls-2" d="M178.51,35.27c-.7,0-1.33-.18-1.88-.53-.55-.35-.98-.85-1.29-1.5s-.47-1.44-.47-2.37.16-1.74.49-2.41c.33-.66.77-1.17,1.33-1.51.56-.35,1.19-.52,1.9-.52.61,0,1.14.15,1.58.44.44.29.78.69,1,1.17v-5.17h2.33v12.22h-2.09l-.1-1.65c-.24.57-.61,1.01-1.11,1.33s-1.07.48-1.7.48ZM179.19,33.49c.6,0,1.08-.23,1.44-.71.36-.47.54-1.14.54-2,0-.82-.18-1.45-.54-1.9-.36-.45-.83-.67-1.42-.67-.63,0-1.13.22-1.49.67-.36.45-.54,1.1-.54,1.96s.18,1.52.53,1.96c.35.45.84.67,1.46.67Z"/>
    <path class="cls-2" d="M189.4,35.27c-1.34,0-2.41-.39-3.21-1.16s-1.21-1.86-1.21-3.26c0-.93.18-1.72.54-2.38.36-.66.87-1.16,1.52-1.51s1.4-.53,2.24-.53,1.59.17,2.19.52,1.06.82,1.38,1.41.48,1.27.48,2.03c0,.23,0,.44-.02.65-.01.2-.03.39-.05.54h-6c.09.66.32,1.15.69,1.47.37.32.85.48,1.44.48.5,0,.9-.1,1.21-.29.31-.19.54-.46.71-.8l1.85.71c-.27.67-.75,1.19-1.43,1.56-.68.37-1.46.55-2.33.55ZM189.26,28.15c-1.1,0-1.76.61-1.99,1.82h3.83c-.07-.59-.26-1.04-.57-1.35-.31-.31-.73-.47-1.27-.47Z"/>
    <path class="cls-2" d="M198.18,35.27c-.86,0-1.65-.15-2.35-.46s-1.28-.74-1.73-1.29l1.34-1.36c.27.41.63.74,1.09,1,.45.26.99.39,1.62.39.44,0,.8-.07,1.06-.2.27-.13.4-.34.4-.62,0-.18-.06-.34-.19-.47-.12-.13-.37-.24-.75-.31l-1.5-.31c-.99-.2-1.69-.51-2.1-.93-.41-.41-.62-.95-.62-1.61,0-.46.14-.9.42-1.31s.69-.74,1.25-.99c.55-.25,1.25-.38,2.07-.38,1.72,0,2.96.53,3.71,1.58l-1.39,1.36c-.25-.4-.58-.7-.98-.91-.4-.21-.82-.31-1.27-.31-1,0-1.5.28-1.5.83,0,.18.08.34.24.47.16.13.45.24.87.33l1.73.36c.84.17,1.44.46,1.8.86.36.4.54.89.54,1.45,0,.82-.33,1.49-.98,2.02-.65.53-1.58.8-2.8.8Z"/>
  </g>
  <g id="PEvMxW.tif">
    <g>
      <path class="cls-2" d="M35.07,15.46c.44.1.74.26,1.08.55,2.09,1.77,3.95,4.2,6.02,6.03.28.31.42.65.52,1.05v19.08c-.23.88-.87,1.52-1.79,1.61h-17.96c-.97-.09-1.7-.83-1.8-1.8v-24.72c.09-.93.72-1.57,1.6-1.8h12.32ZM34.4,17.12h-11.41c-.14,0-.21.24-.2.36l.05,24.54.31.09,17.79-.05s.09-.12.09-.14v-18.16h-5c-.63,0-1.63-1-1.63-1.63v-5ZM39.82,22.1l-3.76-3.76v3.57c0,.06.14.19.19.19h3.56Z"/>
      <path class="cls-2" d="M28.82,27.75h10.16c.53,0,.57.74.03.78h-10.14c-.51-.05-.51-.72-.04-.78Z"/>
      <path class="cls-2" d="M28.85,31.65h10.1c.52,0,.61.66.1.78h-10.19c-.51-.04-.53-.71-.02-.78Z"/>
      <path class="cls-2" d="M28.8,37.5h10.21c.52.04.53.73-.03.78h-10.09c-.49-.02-.57-.66-.09-.78Z"/>
      <path class="cls-2" d="M28.8,33.61h10.26c.51.12.42.77-.1.78h-10.04c-.5,0-.61-.65-.12-.78Z"/>
      <path class="cls-2" d="M28.88,35.54c.07,0,.13.02.19.02,3.24-.01,6.49-.01,9.73,0,.06,0,.12-.03.17-.02.51.01.57.68.08.79h-10.24c-.48-.1-.44-.76.06-.78Z"/>
      <path class="cls-2" d="M28.75,39.46h10.33c.37.07.43.58.08.73-3.45.06-6.91,0-10.37.03-.39-.1-.42-.61-.04-.76Z"/>
      <path class="cls-2" d="M28.75,25.81h10.28c.41.02.5.57.13.73-3.45.06-6.91,0-10.37.02-.39-.09-.42-.61-.04-.76Z"/>
      <path class="cls-2" d="M28.77,29.71h10.26c.46.03.49.66.05.76h-10.29c-.41-.09-.41-.64-.02-.76Z"/>
      <path class="cls-2" d="M24.79,36.09c-.1-.11-.19-.32-.21-.46-.04-.3-.03-.96,0-1.27.03-.38.32-.71.7-.75.32-.03,1-.03,1.33,0s.65.3.7.63c.03.22.03,1.36-.02,1.55-.08.27-.35.51-.63.54-.32.04-1.02.03-1.35,0-.19-.02-.38-.1-.51-.24ZM26.54,34.39h-1.17v1.13s.02.03.04.03c.08.03.63.01.76,0,.11,0,.22-.06.33,0l.04-.03v-1.13Z"/>
      <path class="cls-2" d="M25.21,25.81c.27-.04,1.22-.04,1.49,0,.29.04.57.35.6.64s.04,1.16,0,1.45c-.04.32-.38.59-.7.63-.26.03-1.27.03-1.49-.04-.2-.07-.42-.28-.49-.48-.09-.25-.07-1.16-.05-1.45.03-.34.27-.69.63-.74ZM26.54,27.74v-1.13l-.04-.04h-1.13v1.17h1.17Z"/>
      <path class="cls-2" d="M25.21,29.71c.27-.04,1.16-.04,1.44,0,.31.04.62.33.65.65s.03,1.11,0,1.43c-.04.34-.37.62-.7.65s-1.01.03-1.32,0c-.37-.04-.66-.36-.7-.73-.03-.3-.03-1.02,0-1.32.04-.31.3-.63.62-.68ZM26.54,31.64v-1.13l-.04-.04h-1.13v1.17h1.17Z"/>
      <path class="cls-2" d="M25.23,37.5c.28-.04,1.1-.04,1.39,0,.32.04.64.32.68.65s.03,1.11,0,1.43-.34.61-.65.65-1.09.03-1.4,0c-.29-.03-.53-.25-.62-.52-.08-.24-.08-1.25-.04-1.52.04-.32.32-.63.65-.67ZM26.54,38.29h-1.17v1.17h1.13l.04-.04v-1.13Z"/>
    </g>
  </g>
</svg>